<?xml version="1.0" encoding="UTF-8"?>
<!DOCTYPE svg PUBLIC "-//W3C//DTD SVG 1.1//EN" "http://www.w3.org/Graphics/SVG/1.1/DTD/svg11.dtd">
<!-- Creator: CorelDRAW -->
<svg xmlns="http://www.w3.org/2000/svg" xml:space="preserve" width="67.0243mm" height="25.9014mm" version="1.1" style="shape-rendering:geometricPrecision; text-rendering:geometricPrecision; image-rendering:optimizeQuality; fill-rule:evenodd; clip-rule:evenodd"
viewBox="0 0 3848.34 1487.18"
 xmlns:xlink="http://www.w3.org/1999/xlink"
 xmlns:xodm="http://www.corel.com/coreldraw/odm/2003">
 <defs>
  <style type="text/css">
   <![CDATA[
    .str0 {stroke:#F58634;stroke-width:14.35;stroke-miterlimit:22.9256}
    .str1 {stroke:#134AA9;stroke-width:14.35;stroke-miterlimit:22.9256}
    .fil4 {fill:#FEFEFE}
    .fil0 {fill:#F58634}
    .fil5 {fill:#134AA9}
    .fil3 {fill:#FEFEFE;fill-rule:nonzero}
    .fil2 {fill:#134AA9;fill-rule:nonzero}
    .fil1 {fill:#FEFEFE;fill-opacity:0.101961}
   ]]>
  </style>
 </defs>
 <g id="Plan_x0020_1">
  <metadata id="CorelCorpID_0Corel-Layer"/>
  <rect class="fil0 str0" x="7.6" y="8.69" width="3833.56" height="1471.31"/>
  <polygon class="fil1" points="3841.16,0 179.49,1449.31 -0,1449.31 -0,0 "/>
  <path class="fil2" d="M805.52 1299.16l0 -91.87 66.33 0 0 10.78 -54.14 0 0 28.23 50.68 0 0 10.78 -50.68 0 0 31.3 56.33 0 0 10.78 -68.52 0zm102.11 0l-25.13 -66.59 12.08 0 14.25 39.88c1.54,4.3 2.97,8.77 4.28,13.41 1,-3.5 2.39,-7.72 4.21,-12.65l14.8 -40.63 11.59 0 -25.21 66.59 -10.86 0zm45.96 -79.03l0 -12.83 11.29 0 0 12.83 -11.29 0zm0 79.03l0 -66.59 11.29 0 0 66.59 -11.29 0zm71.49 0l0 -8.45c-4.21,6.56 -10.42,9.86 -18.6,9.86 -5.31,0 -10.18,-1.45 -14.61,-4.39 -4.45,-2.91 -7.89,-6.99 -10.35,-12.21 -2.43,-5.24 -3.66,-11.25 -3.66,-18.05 0,-6.63 1.11,-12.64 3.32,-18.05 2.22,-5.39 5.54,-9.54 9.96,-12.4 4.4,-2.89 9.36,-4.32 14.82,-4.32 4.02,0 7.59,0.86 10.71,2.54 3.12,1.69 5.67,3.91 7.64,6.63l0 -33.04 11.29 0 0 91.87 -10.52 0zm-35.67 -33.21c0,8.51 1.79,14.87 5.41,19.07 3.59,4.21 7.85,6.31 12.75,6.31 4.94,0 9.13,-2.01 12.59,-6.03 3.45,-4.02 5.17,-10.16 5.17,-18.41 0,-9.07 -1.75,-15.74 -5.28,-19.99 -3.51,-4.25 -7.85,-6.37 -13,-6.37 -5.02,0 -9.22,2.03 -12.59,6.11 -3.36,4.08 -5.05,10.52 -5.05,19.31zm109.46 11.66l11.68 1.54c-1.82,6.78 -5.22,12.06 -10.18,15.8 -4.96,3.74 -11.29,5.63 -19.01,5.63 -9.71,0 -17.41,-3 -23.09,-8.98 -5.69,-5.97 -8.53,-14.37 -8.53,-25.17 0,-11.16 2.87,-19.84 8.62,-26 5.75,-6.18 13.21,-9.26 22.39,-9.26 8.88,0 16.12,3.01 21.75,9.07 5.62,6.05 8.45,14.56 8.45,25.53 0,0.66 -0.02,1.67 -0.06,2.99l-49.59 0c0.42,7.29 2.48,12.9 6.2,16.77 3.7,3.87 8.34,5.82 13.88,5.82 4.13,0 7.65,-1.09 10.56,-3.27 2.93,-2.18 5.24,-5.67 6.95,-10.46zm-36.95 -18.09l37.08 0c-0.49,-5.6 -1.93,-9.8 -4.25,-12.6 -3.57,-4.34 -8.23,-6.52 -13.95,-6.52 -5.17,0 -9.51,1.73 -13.05,5.2 -3.5,3.46 -5.45,8.1 -5.83,13.92zm62.89 39.65l0 -66.59 10.13 0 0 9.41c2.07,-3.25 4.86,-5.88 8.32,-7.85 3.46,-1.99 7.4,-2.97 11.82,-2.97 4.92,0 8.96,1.02 12.1,3.05 3.15,2.06 5.37,4.9 6.65,8.58 5.3,-7.76 12.17,-11.63 20.64,-11.63 6.63,0 11.74,1.81 15.29,5.47 3.57,3.66 5.36,9.28 5.36,16.87l0 45.65 -11.29 0 0 -41.91c0,-4.49 -0.38,-7.74 -1.11,-9.73 -0.72,-1.99 -2.05,-3.57 -4,-4.79 -1.92,-1.22 -4.19,-1.81 -6.78,-1.81 -4.7,0 -8.6,1.56 -11.7,4.66 -3.1,3.12 -4.64,8.1 -4.64,14.95l0 38.64 -11.29 0 0 -43.22c0,-5 -0.92,-8.77 -2.76,-11.27 -1.84,-2.5 -4.85,-3.76 -9.03,-3.76 -3.16,0 -6.09,0.83 -8.78,2.5 -2.7,1.67 -4.65,4.11 -5.86,7.33 -1.19,3.21 -1.8,7.85 -1.8,13.9l0 34.51 -11.29 0zm106.88 0l0 -66.59 10.13 0 0 9.41c2.07,-3.25 4.86,-5.88 8.32,-7.85 3.46,-1.99 7.4,-2.97 11.82,-2.97 4.92,0 8.96,1.02 12.1,3.05 3.15,2.06 5.37,4.9 6.65,8.58 5.3,-7.76 12.17,-11.63 20.64,-11.63 6.63,0 11.74,1.81 15.29,5.47 3.57,3.66 5.36,9.28 5.36,16.87l0 45.65 -11.29 0 0 -41.91c0,-4.49 -0.38,-7.74 -1.11,-9.73 -0.72,-1.99 -2.05,-3.57 -4,-4.79 -1.92,-1.22 -4.19,-1.81 -6.78,-1.81 -4.7,0 -8.6,1.56 -11.7,4.66 -3.1,3.12 -4.64,8.1 -4.64,14.95l0 38.64 -11.29 0 0 -43.22c0,-5 -0.92,-8.77 -2.76,-11.27 -1.84,-2.5 -4.85,-3.76 -9.03,-3.76 -3.16,0 -6.09,0.83 -8.78,2.5 -2.7,1.67 -4.65,4.11 -5.86,7.33 -1.19,3.21 -1.8,7.85 -1.8,13.9l0 34.51 -11.29 0zm152.29 -21.55l11.68 1.54c-1.82,6.78 -5.22,12.06 -10.18,15.8 -4.96,3.74 -11.29,5.63 -19.01,5.63 -9.71,0 -17.41,-3 -23.09,-8.98 -5.69,-5.97 -8.53,-14.37 -8.53,-25.17 0,-11.16 2.87,-19.84 8.62,-26 5.75,-6.18 13.21,-9.26 22.39,-9.26 8.88,0 16.12,3.01 21.75,9.07 5.62,6.05 8.45,14.56 8.45,25.53 0,0.66 -0.02,1.67 -0.06,2.99l-49.59 0c0.42,7.29 2.48,12.9 6.2,16.77 3.7,3.87 8.34,5.82 13.88,5.82 4.13,0 7.65,-1.09 10.56,-3.27 2.93,-2.18 5.24,-5.67 6.95,-10.46zm-36.95 -18.09l37.08 0c-0.49,-5.6 -1.93,-9.8 -4.25,-12.6 -3.57,-4.34 -8.23,-6.52 -13.95,-6.52 -5.17,0 -9.51,1.73 -13.05,5.2 -3.5,3.46 -5.45,8.1 -5.83,13.92zm62.89 39.65l0 -66.59 10.13 0 0 9.46c4.87,-7.25 11.93,-10.86 21.15,-10.86 4.02,0 7.69,0.72 11.05,2.16 3.36,1.43 5.88,3.34 7.55,5.67 1.67,2.33 2.84,5.11 3.5,8.31 0.41,2.1 0.63,5.75 0.63,10.97l0 40.89 -11.29 0 0 -40.46c0,-4.6 -0.42,-8.04 -1.3,-10.31 -0.88,-2.26 -2.44,-4.08 -4.66,-5.45 -2.22,-1.35 -4.85,-2.03 -7.85,-2.03 -4.79,0 -8.92,1.52 -12.4,4.58 -3.49,3.04 -5.22,8.83 -5.22,17.34l0 36.33 -11.29 0zm95.86 -10.07l1.54 9.96c-3.16,0.67 -6.01,1 -8.49,1 -4.09,0 -7.25,-0.64 -9.52,-1.94 -2.25,-1.31 -3.82,-3 -4.75,-5.12 -0.92,-2.11 -1.37,-6.56 -1.37,-13.34l0 -38.36 -8.34 0 0 -8.73 8.34 0 0 -16.46 11.29 -6.78 0 23.24 11.29 0 0 8.73 -11.29 0 0 39c0,3.23 0.2,5.31 0.6,6.22 0.38,0.92 1.03,1.65 1.92,2.2 0.9,0.53 2.18,0.81 3.85,0.81 1.24,0 2.89,-0.15 4.92,-0.45z"/>
  <path class="fil2" d="M1514.89 1299.16l0 -12.83 12.83 0 0 12.83c0,4.73 -0.83,8.56 -2.52,11.46 -1.67,2.91 -4.34,5.18 -8,6.76l-3.08 -4.87c2.39,-1.05 4.15,-2.59 5.26,-4.6 1.13,-2.03 1.77,-4.94 1.9,-8.74l-6.39 0zm111.83 -24.38l11.04 1.54c-1.22,7.6 -4.3,13.52 -9.28,17.82 -4.98,4.29 -11.12,6.44 -18.37,6.44 -9.09,0 -16.4,-2.97 -21.92,-8.92 -5.54,-5.95 -8.3,-14.46 -8.3,-25.53 0,-7.18 1.19,-13.45 3.57,-18.84 2.37,-5.37 5.99,-9.41 10.86,-12.08 4.85,-2.7 10.13,-4.04 15.86,-4.04 7.21,0 13.13,1.81 17.71,5.47 4.6,3.66 7.55,8.85 8.83,15.57l-10.9 1.67c-1.05,-4.47 -2.89,-7.83 -5.56,-10.09 -2.65,-2.25 -5.86,-3.38 -9.62,-3.38 -5.68,0 -10.31,2.03 -13.88,6.09 -3.55,4.08 -5.32,10.5 -5.32,19.31 0,8.94 1.71,15.42 5.13,19.46 3.44,4.04 7.91,6.07 13.41,6.07 4.45,0 8.15,-1.35 11.1,-4.07 2.97,-2.69 4.85,-6.86 5.64,-12.49zm20.14 -55.3l0 -13.09 12.06 0 0 10.39c0,5.56 -0.64,9.58 -1.95,12.02 -1.82,3.38 -4.62,5.9 -8.45,7.61l-2.69 -4.45c2.26,-0.92 3.93,-2.35 5.05,-4.34 1.11,-1.97 1.73,-4.69 1.86,-8.15l-5.89 0z"/>
  <path class="fil2" d="M1708.54 1277.61l11.68 1.54c-1.82,6.78 -5.22,12.06 -10.18,15.8 -4.96,3.74 -11.29,5.63 -19.01,5.63 -9.71,0 -17.41,-3 -23.09,-8.98 -5.69,-5.97 -8.53,-14.37 -8.53,-25.17 0,-11.16 2.87,-19.84 8.62,-26 5.75,-6.18 13.21,-9.26 22.39,-9.26 8.88,0 16.12,3.01 21.75,9.07 5.62,6.05 8.45,14.56 8.45,25.53 0,0.66 -0.02,1.67 -0.06,2.99l-49.59 0c0.42,7.29 2.48,12.9 6.2,16.77 3.7,3.87 8.34,5.82 13.88,5.82 4.13,0 7.65,-1.09 10.56,-3.27 2.93,-2.18 5.24,-5.67 6.95,-10.46zm-36.95 -18.09l37.08 0c-0.49,-5.6 -1.93,-9.8 -4.25,-12.6 -3.57,-4.34 -8.23,-6.52 -13.95,-6.52 -5.17,0 -9.51,1.73 -13.05,5.2 -3.5,3.46 -5.45,8.1 -5.83,13.92zm58.4 19.76l11.16 -1.79c0.62,4.47 2.37,7.89 5.24,10.28 2.87,2.37 6.89,3.57 12.02,3.57 5.2,0 9.05,-1.05 11.57,-3.16 2.5,-2.1 3.77,-4.58 3.77,-7.42 0,-2.54 -1.14,-4.55 -3.38,-6.01 -1.58,-1 -5.43,-2.27 -11.55,-3.83 -8.25,-2.07 -13.96,-3.87 -17.17,-5.39 -3.18,-1.54 -5.6,-3.64 -7.25,-6.33 -1.65,-2.67 -2.48,-5.64 -2.48,-8.89 0,-2.97 0.68,-5.71 2.03,-8.23 1.37,-2.52 3.2,-4.62 5.54,-6.29 1.76,-1.28 4.15,-2.37 7.17,-3.27 3.04,-0.9 6.26,-1.34 9.73,-1.34 5.21,0 9.79,0.75 13.73,2.26 3.96,1.5 6.86,3.55 8.74,6.12 1.86,2.58 3.16,6.03 3.87,10.35l-11.04 1.54c-0.49,-3.46 -1.95,-6.18 -4.34,-8.12 -2.39,-1.95 -5.77,-2.91 -10.16,-2.91 -5.15,0 -8.85,0.86 -11.05,2.56 -2.2,1.71 -3.32,3.72 -3.32,6.01 0,1.45 0.45,2.78 1.37,3.96 0.92,1.2 2.35,2.2 4.32,2.99 1.13,0.43 4.43,1.39 9.94,2.89 7.95,2.12 13.52,3.87 16.68,5.22 3.16,1.35 5.64,3.34 7.44,5.9 1.81,2.58 2.72,5.79 2.72,9.65 0,3.74 -1.09,7.27 -3.3,10.58 -2.2,3.31 -5.37,5.88 -9.49,7.7 -4.15,1.81 -8.83,2.72 -14.05,2.72 -8.64,0 -15.25,-1.8 -19.78,-5.37 -4.54,-3.59 -7.42,-8.89 -8.68,-15.93zm93.15 9.82l1.54 9.96c-3.16,0.67 -6.01,1 -8.49,1 -4.09,0 -7.25,-0.64 -9.52,-1.94 -2.25,-1.31 -3.82,-3 -4.75,-5.12 -0.92,-2.11 -1.37,-6.56 -1.37,-13.34l0 -38.36 -8.34 0 0 -8.73 8.34 0 0 -16.46 11.29 -6.78 0 23.24 11.29 0 0 8.73 -11.29 0 0 39c0,3.23 0.2,5.31 0.6,6.22 0.38,0.92 1.03,1.65 1.92,2.2 0.9,0.53 2.18,0.81 3.85,0.81 1.24,0 2.89,-0.15 4.92,-0.45zm90.28 10.07l0 -9.9c-5.17,7.54 -12.19,11.31 -21.06,11.31 -3.92,0 -7.57,-0.75 -10.97,-2.25 -3.4,-1.52 -5.93,-3.4 -7.57,-5.67 -1.65,-2.29 -2.8,-5.07 -3.47,-8.36 -0.45,-2.23 -0.68,-5.74 -0.68,-10.52l0 -41.21 11.29 0 0 36.84c0,5.89 0.24,9.86 0.68,11.89 0.71,2.97 2.2,5.28 4.51,6.97 2.29,1.69 5.11,2.55 8.49,2.55 3.38,0 6.55,-0.86 9.5,-2.59 2.95,-1.73 5.05,-4.11 6.29,-7.08 1.22,-2.97 1.84,-7.31 1.84,-12.98l0 -35.6 11.29 0 0 66.59 -10.13 0zm27.86 0l0 -66.59 10.13 0 0 9.46c4.87,-7.25 11.93,-10.86 21.15,-10.86 4.02,0 7.69,0.72 11.05,2.16 3.36,1.43 5.88,3.34 7.55,5.67 1.67,2.33 2.84,5.11 3.5,8.31 0.41,2.1 0.63,5.75 0.63,10.97l0 40.89 -11.29 0 0 -40.46c0,-4.6 -0.42,-8.04 -1.3,-10.31 -0.88,-2.26 -2.44,-4.08 -4.66,-5.45 -2.22,-1.35 -4.85,-2.03 -7.85,-2.03 -4.79,0 -8.92,1.52 -12.4,4.58 -3.49,3.04 -5.22,8.83 -5.22,17.34l0 36.33 -11.29 0zm116.77 -21.55l11.68 1.54c-1.82,6.78 -5.22,12.06 -10.18,15.8 -4.96,3.74 -11.29,5.63 -19.01,5.63 -9.71,0 -17.41,-3 -23.09,-8.98 -5.69,-5.97 -8.53,-14.37 -8.53,-25.17 0,-11.16 2.87,-19.84 8.62,-26 5.75,-6.18 13.21,-9.26 22.39,-9.26 8.88,0 16.12,3.01 21.75,9.07 5.62,6.05 8.45,14.56 8.45,25.53 0,0.66 -0.02,1.67 -0.06,2.99l-49.59 0c0.42,7.29 2.48,12.9 6.2,16.77 3.7,3.87 8.34,5.82 13.88,5.82 4.13,0 7.65,-1.09 10.56,-3.27 2.93,-2.18 5.24,-5.67 6.95,-10.46zm-36.95 -18.09l37.08 0c-0.49,-5.6 -1.93,-9.8 -4.25,-12.6 -3.57,-4.34 -8.23,-6.52 -13.95,-6.52 -5.17,0 -9.51,1.73 -13.05,5.2 -3.5,3.46 -5.45,8.1 -5.83,13.92zm98.4 39.65l0 -66.59 10.14 0 0 10.2c2.58,-4.73 4.98,-7.85 7.18,-9.35 2.2,-1.52 4.62,-2.26 7.25,-2.26 3.81,0 7.68,1.19 11.61,3.57l-4.02 10.41c-2.74,-1.54 -5.48,-2.31 -8.21,-2.31 -2.46,0 -4.66,0.75 -6.61,2.22 -1.95,1.48 -3.34,3.53 -4.17,6.16 -1.26,4 -1.88,8.38 -1.88,13.15l0 34.79 -11.29 0zm88.27 -21.55l11.68 1.54c-1.82,6.78 -5.22,12.06 -10.18,15.8 -4.96,3.74 -11.29,5.63 -19.01,5.63 -9.71,0 -17.41,-3 -23.09,-8.98 -5.69,-5.97 -8.53,-14.37 -8.53,-25.17 0,-11.16 2.87,-19.84 8.62,-26 5.75,-6.18 13.21,-9.26 22.39,-9.26 8.88,0 16.12,3.01 21.75,9.07 5.62,6.05 8.45,14.56 8.45,25.53 0,0.66 -0.02,1.67 -0.06,2.99l-49.59 0c0.42,7.29 2.48,12.9 6.2,16.77 3.7,3.87 8.34,5.82 13.88,5.82 4.13,0 7.65,-1.09 10.56,-3.27 2.93,-2.18 5.24,-5.67 6.95,-10.46zm-36.95 -18.09l37.08 0c-0.49,-5.6 -1.93,-9.8 -4.25,-12.6 -3.57,-4.34 -8.23,-6.52 -13.95,-6.52 -5.17,0 -9.51,1.73 -13.05,5.2 -3.5,3.46 -5.45,8.1 -5.83,13.92zm62.63 39.65l0 -91.87 11.29 0 0 91.87 -11.29 0zm72.26 -8.34c-4.19,3.57 -8.23,6.07 -12.1,7.54 -3.87,1.48 -8.02,2.2 -12.47,2.2 -7.31,0 -12.94,-1.77 -16.87,-5.35 -3.93,-3.55 -5.9,-8.11 -5.9,-13.64 0,-3.26 0.75,-6.22 2.23,-8.92 1.49,-2.7 3.44,-4.83 5.84,-6.46 2.41,-1.62 5.11,-2.87 8.12,-3.7 2.22,-0.57 5.58,-1.13 10.05,-1.69 9.11,-1.07 15.85,-2.37 20.15,-3.87 0.04,-1.54 0.06,-2.52 0.06,-2.93 0,-4.58 -1.07,-7.8 -3.21,-9.69 -2.89,-2.54 -7.18,-3.81 -12.87,-3.81 -5.32,0 -9.26,0.94 -11.78,2.8 -2.54,1.86 -4.4,5.15 -5.63,9.9l-11.03 -1.54c1,-4.73 2.65,-8.56 4.96,-11.46 2.31,-2.91 5.64,-5.13 10.01,-6.72 4.34,-1.56 9.4,-2.35 15.14,-2.35 5.68,0 10.32,0.66 13.89,2.01 3.55,1.34 6.18,3.01 7.85,5.05 1.67,2.03 2.84,4.59 3.53,7.69 0.36,1.93 0.56,5.39 0.56,10.38l0 14.97c0,10.46 0.23,17.06 0.7,19.87 0.45,2.8 1.39,5.47 2.76,8.04l-11.8 0c-1.13,-2.37 -1.86,-5.16 -2.18,-8.34zm-0.9 -25.02c-4.11,1.67 -10.27,3.08 -18.48,4.23 -4.66,0.67 -7.96,1.41 -9.88,2.25 -1.92,0.83 -3.4,2.05 -4.44,3.63 -1.05,1.6 -1.58,3.38 -1.58,5.35 0,2.97 1.13,5.47 3.42,7.46 2.29,1.99 5.62,2.99 10.01,2.99 4.34,0 8.21,-0.94 11.61,-2.84 3.38,-1.88 5.88,-4.47 7.46,-7.75 1.22,-2.54 1.82,-6.29 1.82,-11.23l0.06 -4.11zm53.27 23.29l1.54 9.96c-3.16,0.67 -6.01,1 -8.49,1 -4.09,0 -7.25,-0.64 -9.52,-1.94 -2.25,-1.31 -3.82,-3 -4.75,-5.12 -0.92,-2.11 -1.37,-6.56 -1.37,-13.34l0 -38.36 -8.34 0 0 -8.73 8.34 0 0 -16.46 11.29 -6.78 0 23.24 11.29 0 0 8.73 -11.29 0 0 39c0,3.23 0.2,5.31 0.6,6.22 0.38,0.92 1.03,1.65 1.92,2.2 0.9,0.53 2.18,0.81 3.85,0.81 1.24,0 2.89,-0.15 4.92,-0.45zm11.14 -68.96l0 -12.83 11.29 0 0 12.83 -11.29 0zm0 79.03l0 -66.59 11.29 0 0 66.59 -11.29 0zm24.27 -33.3c0,-12.29 3.42,-21.41 10.29,-27.32 5.71,-4.92 12.7,-7.38 20.93,-7.38 9.13,0 16.62,2.99 22.43,8.98 5.79,5.97 8.7,14.24 8.7,24.78 0,8.56 -1.29,15.27 -3.85,20.16 -2.57,4.9 -6.3,8.7 -11.23,11.42 -4.9,2.72 -10.27,4.07 -16.06,4.07 -9.32,0 -16.85,-2.97 -22.61,-8.94 -5.75,-5.97 -8.62,-14.56 -8.62,-25.77zm11.55 0.02c0,8.51 1.86,14.88 5.58,19.1 3.74,4.23 8.42,6.35 14.09,6.35 5.6,0 10.27,-2.12 14,-6.37 3.72,-4.25 5.58,-10.74 5.58,-19.44 0,-8.22 -1.88,-14.43 -5.62,-18.65 -3.74,-4.23 -8.41,-6.35 -13.96,-6.35 -5.67,0 -10.35,2.1 -14.09,6.31 -3.72,4.21 -5.58,10.56 -5.58,19.05zm64.04 33.27l0 -66.59 10.13 0 0 9.46c4.87,-7.25 11.93,-10.86 21.15,-10.86 4.02,0 7.69,0.72 11.05,2.16 3.36,1.43 5.88,3.34 7.55,5.67 1.67,2.33 2.84,5.11 3.5,8.31 0.41,2.1 0.63,5.75 0.63,10.97l0 40.89 -11.29 0 0 -40.46c0,-4.6 -0.42,-8.04 -1.3,-10.31 -0.88,-2.26 -2.44,-4.08 -4.66,-5.45 -2.22,-1.35 -4.85,-2.03 -7.85,-2.03 -4.79,0 -8.92,1.52 -12.4,4.58 -3.49,3.04 -5.22,8.83 -5.22,17.34l0 36.33 -11.29 0zm149.98 0l0 -8.45c-4.21,6.56 -10.42,9.86 -18.6,9.86 -5.31,0 -10.18,-1.45 -14.61,-4.39 -4.45,-2.91 -7.89,-6.99 -10.35,-12.21 -2.43,-5.24 -3.66,-11.25 -3.66,-18.05 0,-6.63 1.11,-12.64 3.32,-18.05 2.22,-5.39 5.54,-9.54 9.96,-12.4 4.4,-2.89 9.36,-4.32 14.82,-4.32 4.02,0 7.59,0.86 10.71,2.54 3.12,1.69 5.67,3.91 7.64,6.63l0 -33.04 11.29 0 0 91.87 -10.52 0zm-35.67 -33.21c0,8.51 1.79,14.87 5.41,19.07 3.59,4.21 7.85,6.31 12.75,6.31 4.94,0 9.13,-2.01 12.59,-6.03 3.45,-4.02 5.17,-10.16 5.17,-18.41 0,-9.07 -1.75,-15.74 -5.28,-19.99 -3.51,-4.25 -7.85,-6.37 -13,-6.37 -5.02,0 -9.22,2.03 -12.59,6.11 -3.36,4.08 -5.05,10.52 -5.05,19.31zm109.46 11.66l11.68 1.54c-1.82,6.78 -5.22,12.06 -10.18,15.8 -4.96,3.74 -11.29,5.63 -19.01,5.63 -9.71,0 -17.41,-3 -23.09,-8.98 -5.69,-5.97 -8.53,-14.37 -8.53,-25.17 0,-11.16 2.87,-19.84 8.62,-26 5.75,-6.18 13.21,-9.26 22.39,-9.26 8.88,0 16.12,3.01 21.75,9.07 5.62,6.05 8.45,14.56 8.45,25.53 0,0.66 -0.02,1.67 -0.06,2.99l-49.59 0c0.42,7.29 2.48,12.9 6.2,16.77 3.7,3.87 8.34,5.82 13.88,5.82 4.13,0 7.65,-1.09 10.56,-3.27 2.93,-2.18 5.24,-5.67 6.95,-10.46zm-36.95 -18.09l37.08 0c-0.49,-5.6 -1.93,-9.8 -4.25,-12.6 -3.57,-4.34 -8.23,-6.52 -13.95,-6.52 -5.17,0 -9.51,1.73 -13.05,5.2 -3.5,3.46 -5.45,8.1 -5.83,13.92zm142.03 15.27l11.04 1.54c-1.22,7.6 -4.3,13.52 -9.28,17.82 -4.98,4.29 -11.12,6.44 -18.37,6.44 -9.09,0 -16.4,-2.97 -21.92,-8.92 -5.54,-5.95 -8.3,-14.46 -8.3,-25.53 0,-7.18 1.19,-13.45 3.57,-18.84 2.37,-5.37 5.99,-9.41 10.86,-12.08 4.85,-2.7 10.13,-4.04 15.86,-4.04 7.21,0 13.13,1.81 17.71,5.47 4.6,3.66 7.55,8.85 8.83,15.57l-10.9 1.67c-1.05,-4.47 -2.89,-7.83 -5.56,-10.09 -2.65,-2.25 -5.86,-3.38 -9.62,-3.38 -5.68,0 -10.31,2.03 -13.88,6.09 -3.55,4.08 -5.32,10.5 -5.32,19.31 0,8.94 1.71,15.42 5.13,19.46 3.44,4.04 7.91,6.07 13.41,6.07 4.45,0 8.15,-1.35 11.1,-4.07 2.97,-2.69 4.85,-6.86 5.64,-12.49z"/>
  <path class="fil2" d="M2810.71 1265.87c0,-12.29 3.42,-21.41 10.29,-27.32 5.71,-4.92 12.7,-7.38 20.93,-7.38 9.13,0 16.62,2.99 22.43,8.98 5.79,5.97 8.7,14.24 8.7,24.78 0,8.56 -1.29,15.27 -3.85,20.16 -2.57,4.9 -6.3,8.7 -11.23,11.42 -4.9,2.72 -10.27,4.07 -16.06,4.07 -9.32,0 -16.85,-2.97 -22.61,-8.94 -5.75,-5.97 -8.62,-14.56 -8.62,-25.77zm11.55 0.02c0,8.51 1.86,14.88 5.58,19.1 3.74,4.23 8.42,6.35 14.09,6.35 5.6,0 10.27,-2.12 14,-6.37 3.72,-4.25 5.58,-10.74 5.58,-19.44 0,-8.22 -1.88,-14.43 -5.62,-18.65 -3.74,-4.23 -8.41,-6.35 -13.96,-6.35 -5.67,0 -10.35,2.1 -14.09,6.31 -3.72,4.21 -5.58,10.56 -5.58,19.05zm64.04 33.27l0 -66.59 10.13 0 0 9.46c4.87,-7.25 11.93,-10.86 21.15,-10.86 4.02,0 7.69,0.72 11.05,2.16 3.36,1.43 5.88,3.34 7.55,5.67 1.67,2.33 2.84,5.11 3.5,8.31 0.41,2.1 0.63,5.75 0.63,10.97l0 40.89 -11.29 0 0 -40.46c0,-4.6 -0.42,-8.04 -1.3,-10.31 -0.88,-2.26 -2.44,-4.08 -4.66,-5.45 -2.22,-1.35 -4.85,-2.03 -7.85,-2.03 -4.79,0 -8.92,1.52 -12.4,4.58 -3.49,3.04 -5.22,8.83 -5.22,17.34l0 36.33 -11.29 0zm74.31 0l0 -57.86 -10.01 0 0 -8.73 10.01 0 0 -6.44c0,-6.59 1.43,-11.63 4.28,-15.12 2.84,-3.5 7.33,-5.26 13.49,-5.26 4.15,0 7.98,0.47 11.48,1.41l-1.76 9.51c-2.22,-0.36 -4.25,-0.53 -6.09,-0.53 -3.89,0 -6.57,0.77 -7.98,2.31 -1.44,1.54 -2.14,4.81 -2.14,9.82l0 4.29 12.96 0 0 8.73 -12.96 0 0 57.86 -11.29 0zm32.59 -79.03l0 -12.83 11.29 0 0 12.83 -11.29 0zm0 79.03l0 -66.59 11.29 0 0 66.59 -11.29 0zm72.1 -8.34c-4.19,3.57 -8.23,6.07 -12.1,7.54 -3.87,1.48 -8.02,2.2 -12.47,2.2 -7.31,0 -12.94,-1.77 -16.87,-5.35 -3.93,-3.55 -5.9,-8.11 -5.9,-13.64 0,-3.26 0.75,-6.22 2.23,-8.92 1.49,-2.7 3.44,-4.83 5.84,-6.46 2.41,-1.62 5.11,-2.87 8.12,-3.7 2.22,-0.57 5.58,-1.13 10.05,-1.69 9.11,-1.07 15.85,-2.37 20.15,-3.87 0.04,-1.54 0.06,-2.52 0.06,-2.93 0,-4.58 -1.07,-7.8 -3.21,-9.69 -2.89,-2.54 -7.18,-3.81 -12.87,-3.81 -5.32,0 -9.26,0.94 -11.78,2.8 -2.54,1.86 -4.4,5.15 -5.63,9.9l-11.03 -1.54c1,-4.73 2.65,-8.56 4.96,-11.46 2.31,-2.91 5.64,-5.13 10.01,-6.72 4.34,-1.56 9.4,-2.35 15.14,-2.35 5.68,0 10.32,0.66 13.89,2.01 3.55,1.34 6.18,3.01 7.85,5.05 1.67,2.03 2.84,4.59 3.53,7.69 0.36,1.93 0.56,5.39 0.56,10.38l0 14.97c0,10.46 0.23,17.06 0.7,19.87 0.45,2.8 1.39,5.47 2.76,8.04l-11.8 0c-1.13,-2.37 -1.86,-5.16 -2.18,-8.34zm-0.9 -25.02c-4.11,1.67 -10.27,3.08 -18.48,4.23 -4.66,0.67 -7.96,1.41 -9.88,2.25 -1.92,0.83 -3.4,2.05 -4.44,3.63 -1.05,1.6 -1.58,3.38 -1.58,5.35 0,2.97 1.13,5.47 3.42,7.46 2.29,1.99 5.62,2.99 10.01,2.99 4.34,0 8.21,-0.94 11.61,-2.84 3.38,-1.88 5.88,-4.47 7.46,-7.75 1.22,-2.54 1.82,-6.29 1.82,-11.23l0.06 -4.11zm28.76 33.36l0 -66.59 10.13 0 0 9.46c4.87,-7.25 11.93,-10.86 21.15,-10.86 4.02,0 7.69,0.72 11.05,2.16 3.36,1.43 5.88,3.34 7.55,5.67 1.67,2.33 2.84,5.11 3.5,8.31 0.41,2.1 0.63,5.75 0.63,10.97l0 40.89 -11.29 0 0 -40.46c0,-4.6 -0.42,-8.04 -1.3,-10.31 -0.88,-2.26 -2.44,-4.08 -4.66,-5.45 -2.22,-1.35 -4.85,-2.03 -7.85,-2.03 -4.79,0 -8.92,1.52 -12.4,4.58 -3.49,3.04 -5.22,8.83 -5.22,17.34l0 36.33 -11.29 0z"/>
  <path class="fil2" d="M3201.63 1274.78l11.04 1.54c-1.22,7.6 -4.3,13.52 -9.28,17.82 -4.98,4.29 -11.12,6.44 -18.37,6.44 -9.09,0 -16.4,-2.97 -21.92,-8.92 -5.54,-5.95 -8.3,-14.46 -8.3,-25.53 0,-7.18 1.19,-13.45 3.57,-18.84 2.37,-5.37 5.99,-9.41 10.86,-12.08 4.85,-2.7 10.13,-4.04 15.86,-4.04 7.21,0 13.13,1.81 17.71,5.47 4.6,3.66 7.55,8.85 8.83,15.57l-10.9 1.67c-1.05,-4.47 -2.89,-7.83 -5.56,-10.09 -2.65,-2.25 -5.86,-3.38 -9.62,-3.38 -5.68,0 -10.31,2.03 -13.88,6.09 -3.55,4.08 -5.32,10.5 -5.32,19.31 0,8.94 1.71,15.42 5.13,19.46 3.44,4.04 7.91,6.07 13.41,6.07 4.45,0 8.15,-1.35 11.1,-4.07 2.97,-2.69 4.85,-6.86 5.64,-12.49zm66.08 2.82l11.68 1.54c-1.82,6.78 -5.22,12.06 -10.18,15.8 -4.96,3.74 -11.29,5.63 -19.01,5.63 -9.71,0 -17.41,-3 -23.09,-8.98 -5.69,-5.97 -8.53,-14.37 -8.53,-25.17 0,-11.16 2.87,-19.84 8.62,-26 5.75,-6.18 13.21,-9.26 22.39,-9.26 8.88,0 16.12,3.01 21.75,9.07 5.62,6.05 8.45,14.56 8.45,25.53 0,0.66 -0.02,1.67 -0.06,2.99l-49.59 0c0.42,7.29 2.48,12.9 6.2,16.77 3.7,3.87 8.34,5.82 13.88,5.82 4.13,0 7.65,-1.09 10.56,-3.27 2.93,-2.18 5.24,-5.67 6.95,-10.46zm-36.95 -18.09l37.08 0c-0.49,-5.6 -1.93,-9.8 -4.25,-12.6 -3.57,-4.34 -8.23,-6.52 -13.95,-6.52 -5.17,0 -9.51,1.73 -13.05,5.2 -3.5,3.46 -5.45,8.1 -5.83,13.92z"/>
  <path class="fil3" d="M1250.46 582.44c0,55.62 -44.56,100.72 -99.49,100.72 -54.95,0 -99.48,-45.1 -99.48,-100.72 0,-55.61 44.53,-100.66 99.48,-100.66 54.94,0 99.49,45.04 99.49,100.66z"/>
  <path class="fil3" d="M1160.85 438.65c64.8,8.39 96.93,37.64 117.95,82.07 4.94,8.72 7.14,16.28 8,21.65 0.57,2.1 1.14,4.2 1.61,6.32 530.18,-1120 -832.55,484.09 -832.55,484.09 340.22,-326.12 566.19,-612.11 705,-594.13z"/>
  <path class="fil3" d="M1494.58 149.88l33.45 0 0 472.07c0,15.96 6.83,23.57 15.97,23.57 3.03,0 45.47,0 53.06,-1.5l6.09 27.36c-6.85,2.29 -53.09,3.78 -63.73,3.78 -29.62,0 -44.85,-18.25 -44.85,-57.8l0 -467.48z"/>
  <path class="fil3" d="M1892.82 457.63c1.4,-50.8 -13.18,-105.72 -78.51,-105.72 -45.18,0 -84.09,22.28 -106.34,38.92l-13.9 -22.89c23.62,-16.68 69.49,-43.09 123.7,-43.09 79.21,0 105.62,57.02 105.62,128.56l0 221.43 -25.71 0 -3.47 -51.1 -1.4 0c-34.05,27.12 -74.36,51.42 -118.16,51.42 -52.78,0 -97.26,-28.48 -97.26,-91.74 0,-73.69 67.4,-109.17 215.42,-125.8zm-113.28 191.14c38.23,0 72.29,-18.76 113.28,-54.22l0 -113.29c-136.91,15.96 -183.45,47.94 -183.45,100.77 0,47.98 31.97,66.74 70.18,66.74z"/>
  <path class="fil3" d="M2039.82 333.38l27.05 0 2.85 52.67 2.12 0c34.89,-34.87 70.48,-61.21 117.47,-61.21 70.48,0 103.25,42.71 103.25,131.02l0 219.29 -31.35 0 0 -215.03c0,-72.64 -22.78,-106.8 -78.29,-106.8 -40.59,0 -69.76,21.36 -111.76,64.07l0 257.76 -31.33 0 0 -341.77z"/>
  <path class="fil3" d="M2646.02 457.63c1.4,-50.8 -13.22,-105.72 -78.52,-105.72 -45.16,0 -84.08,22.28 -106.32,38.92l-13.91 -22.89c23.64,-16.68 69.51,-43.09 123.7,-43.09 79.24,0 105.64,57.02 105.64,128.56l0 221.43 -25.7 0 -3.49 -51.1 -1.4 0c-34.06,27.12 -74.36,51.42 -118.14,51.42 -52.82,0 -97.29,-28.48 -97.29,-91.74 0,-73.69 67.41,-109.17 215.43,-125.8zm-113.28 191.14c38.22,0 72.25,-18.76 113.28,-54.22l0 -113.29c-136.88,15.96 -183.46,47.91 -183.46,100.77 0,47.98 31.98,66.74 70.18,66.74z"/>
  <path class="fil3" d="M3231.92 457.63c1.37,-50.8 -13.2,-105.72 -78.56,-105.72 -45.14,0 -84.07,22.28 -106.32,38.92l-13.9 -22.89c23.64,-16.68 69.51,-43.09 123.72,-43.09 79.23,0 105.62,57.02 105.62,128.56l0 221.43 -25.73 0 -3.46 -51.1 -1.37 0c-34.05,27.12 -74.39,51.42 -118.15,51.42 -52.82,0 -97.29,-28.48 -97.29,-91.74 0,-73.69 67.4,-109.17 215.45,-125.8l0 0zm-113.29 191.14c38.23,0 72.28,-18.76 113.29,-54.22l0 -113.29c-136.92,15.96 -183.46,47.91 -183.46,100.77 0,47.98 31.96,66.74 70.18,66.74z"/>
  <path class="fil3" d="M2838.13 149.88l33.46 0 0 472.07c0,15.96 6.85,23.57 15.96,23.57 3.05,0 45.48,0 53.09,-1.5l6.08 27.36c-6.85,2.29 -53.07,3.78 -63.71,3.78 -29.68,0 -44.88,-18.25 -44.88,-57.8l0 -467.48z"/>
  <path class="fil2" d="M806.19 1120.23l84.09 0 0 -144.73 129.28 0 0 -70.93 -129.28 0 0 -86.38 151.02 0 0 -70.93 -235.11 0 0 372.98zm299.76 0l84.09 0 0 -372.98 -84.09 0 0 372.98zm172.19 0l80.09 0 0 -132.15c0,-44.05 -6.86,-93.82 -10.29,-135l2.29 0 36.61 81.23 97.25 185.92 86.38 0 0 -372.98 -80.09 0 0 131.57c0,44.05 6.87,96.68 10.3,136.15l-2.29 0 -36.61 -82.38 -97.25 -185.35 -86.38 0 0 372.98zm467.94 -188.78c10.3,-37.18 20.02,-80.66 29.18,-120.13l2.29 0c9.73,38.9 20.02,82.94 30.32,120.13l8.58 34.32 -79.52 0 9.15 -34.32zm-135 188.78l85.81 0 22.88 -88.67 113.84 0 22.88 88.67 89.24 0 -116.7 -372.98 -101.25 0 -116.7 372.98zm375.27 0l80.09 0 0 -132.15c0,-44.05 -6.86,-93.82 -10.29,-135l2.29 0 36.61 81.23 97.25 185.92 86.38 0 0 -372.98 -80.09 0 0 131.57c0,44.05 6.87,96.68 10.3,136.15l-2.29 0 -36.61 -82.38 -97.25 -185.35 -86.38 0 0 372.98zm536.02 6.87c48.62,0 89.81,-18.88 120.7,-54.92l-44.62 -52.63c-18.31,19.45 -42.33,34.89 -72.66,34.89 -54.91,0 -90.38,-44.62 -90.38,-121.28 0,-74.93 40.61,-120.13 91.53,-120.13 26.88,0 46.9,12.59 65.78,29.74l44.62 -53.77c-25.17,-25.74 -64.07,-48.63 -112.12,-48.63 -94.39,0 -176.2,72.08 -176.2,195.64 0,125.28 78.94,191.07 173.34,191.07zm177.34 -6.87l239.12 0 0 -70.93 -155.03 0 0 -85.81 127 0 0 -70.36 -127 0 0 -74.94 149.31 0 0 -70.93 -233.4 0 0 372.98zm427.32 6.87c89.24,0 140.73,-53.78 140.73,-115.56 0,-52.63 -28.61,-82.95 -73.8,-101.25l-48.05 -19.45c-32.03,-13.16 -56.63,-21.17 -56.63,-44.05 0,-21.16 18.3,-33.75 47.48,-33.75 29.75,0 52.63,10.87 77.23,29.74l42.91 -53.2c-32.03,-32.04 -77.23,-49.2 -120.13,-49.2 -77.8,0 -132.71,49.2 -132.71,110.98 0,54.35 36.61,86.38 74.93,101.82l48.63 20.6c32.61,13.73 53.77,21.17 53.77,44.62 0,22.31 -17.16,36.03 -52.05,36.03 -30.89,0 -65.21,-16.01 -92.1,-38.9l-48.05 57.78c37.76,35.47 89.24,53.78 137.86,53.78z"/>
  <rect class="fil4" x="805.95" y="1143.98" width="2457.4" height="22.12"/>
  <rect class="fil5 str1" x="7.6" y="1440.77" width="3833.56" height="39.23"/>
 </g>
</svg>
