<?xml version="1.0" encoding="UTF-8"?>
<!DOCTYPE svg PUBLIC "-//W3C//DTD SVG 1.1//EN" "http://www.w3.org/Graphics/SVG/1.1/DTD/svg11.dtd">
<!-- Creator: CorelDRAW -->
<svg xmlns="http://www.w3.org/2000/svg" xml:space="preserve" width="67.0243mm" height="25.9013mm" version="1.1" style="shape-rendering:geometricPrecision; text-rendering:geometricPrecision; image-rendering:optimizeQuality; fill-rule:evenodd; clip-rule:evenodd"
viewBox="0 0 3848.34 1487.18"
 xmlns:xlink="http://www.w3.org/1999/xlink"
 xmlns:xodm="http://www.corel.com/coreldraw/odm/2003">
 <defs>
  <style type="text/css">
   <![CDATA[
    .str0 {stroke:#F58634;stroke-width:14.35;stroke-miterlimit:22.9256}
    .fil4 {fill:#FEFEFE}
    .fil0 {fill:#F58634}
    .fil3 {fill:#FEFEFE;fill-rule:nonzero}
    .fil2 {fill:#134AA9;fill-rule:nonzero}
    .fil1 {fill:#FEFEFE;fill-opacity:0.101961}
   ]]>
  </style>
 </defs>
 <g id="Plan_x0020_1">
  <metadata id="CorelCorpID_0Corel-Layer"/>
  <path class="fil0 str0" d="M7.6 8.69l2685.22 0c631.59,0 1148.34,516.76 1148.34,1148.35l0 322.97 -2685.22 0c-631.59,0 -1148.34,-516.75 -1148.34,-1148.34l0 -322.97z"/>
  <polygon class="fil1" points="3841.16,0 179.49,1449.31 -0,1449.31 -0,0 "/>
  <path class="fil2" d="M1004.37 1230.83l0 -80.76 58.31 0 0 9.47 -47.6 0 0 24.82 44.56 0 0 9.47 -44.56 0 0 27.53 49.52 0 0 9.47 -60.23 0zm89.77 0l-22.09 -58.54 10.62 0 12.52 35.06c1.36,3.78 2.61,7.71 3.76,11.78 0.88,-3.08 2.11,-6.79 3.7,-11.13l13.01 -35.72 10.19 0 -22.16 58.54 -9.55 0zm40.4 -69.48l0 -11.28 9.92 0 0 11.28 -9.92 0zm0 69.48l0 -58.54 9.92 0 0 58.54 -9.92 0zm62.84 0l0 -7.42c-3.7,5.77 -9.16,8.66 -16.36,8.66 -4.66,0 -8.95,-1.28 -12.84,-3.85 -3.91,-2.56 -6.94,-6.15 -9.1,-10.74 -2.14,-4.6 -3.22,-9.89 -3.22,-15.86 0,-5.83 0.98,-11.11 2.92,-15.86 1.95,-4.74 4.87,-8.39 8.76,-10.9 3.87,-2.54 8.23,-3.8 13.03,-3.8 3.53,0 6.67,0.75 9.42,2.24 2.74,1.48 4.98,3.44 6.71,5.83l0 -29.05 9.93 0 0 80.76 -9.25 0zm-31.36 -29.2c0,7.48 1.58,13.07 4.76,16.77 3.16,3.7 6.9,5.55 11.2,5.55 4.34,0 8.03,-1.77 11.08,-5.31 3.03,-3.53 4.55,-8.93 4.55,-16.19 0,-7.97 -1.54,-13.84 -4.65,-17.58 -3.08,-3.74 -6.9,-5.6 -11.43,-5.6 -4.42,0 -8.11,1.79 -11.08,5.38 -2.95,3.59 -4.44,9.25 -4.44,16.97zm96.24 10.25l10.27 1.35c-1.6,5.96 -4.59,10.6 -8.95,13.89 -4.36,3.29 -9.93,4.94 -16.71,4.94 -8.53,0 -15.3,-2.63 -20.3,-7.89 -5,-5.25 -7.5,-12.63 -7.5,-22.13 0,-9.81 2.52,-17.44 7.57,-22.86 5.06,-5.43 11.62,-8.14 19.68,-8.14 7.8,0 14.18,2.65 19.12,7.97 4.94,5.32 7.43,12.8 7.43,22.45 0,0.58 -0.02,1.46 -0.06,2.63l-43.6 0c0.37,6.41 2.18,11.33 5.45,14.74 3.26,3.4 7.33,5.12 12.2,5.12 3.63,0 6.74,-0.96 9.29,-2.88 2.57,-1.92 4.6,-4.98 6.11,-9.19zm-32.49 -15.9l32.6 0c-0.44,-4.93 -1.69,-8.61 -3.74,-11.08 -3.14,-3.81 -7.24,-5.73 -12.26,-5.73 -4.55,0 -8.37,1.52 -11.47,4.56 -3.08,3.05 -4.79,7.13 -5.13,12.24zm55.29 34.85l0 -58.54 8.91 0 0 8.27c1.82,-2.86 4.27,-5.17 7.31,-6.9 3.05,-1.75 6.51,-2.61 10.4,-2.61 4.32,0 7.88,0.9 10.64,2.69 2.76,1.81 4.72,4.31 5.85,7.54 4.66,-6.82 10.7,-10.23 18.14,-10.23 5.83,0 10.32,1.6 13.44,4.81 3.14,3.22 4.72,8.16 4.72,14.84l0 40.13 -9.93 0 0 -36.84c0,-3.95 -0.34,-6.81 -0.98,-8.56 -0.64,-1.75 -1.81,-3.14 -3.52,-4.21 -1.69,-1.07 -3.68,-1.6 -5.96,-1.6 -4.13,0 -7.56,1.37 -10.28,4.1 -2.72,2.74 -4.08,7.13 -4.08,13.14l0 33.97 -9.93 0 0 -37.99c0,-4.4 -0.81,-7.71 -2.42,-9.91 -1.62,-2.2 -4.27,-3.31 -7.94,-3.31 -2.78,0 -5.36,0.73 -7.73,2.2 -2.37,1.47 -4.08,3.61 -5.15,6.45 -1.05,2.82 -1.58,6.9 -1.58,12.22l0 30.34 -9.92 0zm93.96 0l0 -58.54 8.91 0 0 8.27c1.82,-2.86 4.27,-5.17 7.31,-6.9 3.05,-1.75 6.51,-2.61 10.4,-2.61 4.32,0 7.88,0.9 10.64,2.69 2.76,1.81 4.72,4.31 5.85,7.54 4.66,-6.82 10.7,-10.23 18.14,-10.23 5.83,0 10.32,1.6 13.44,4.81 3.14,3.22 4.72,8.16 4.72,14.84l0 40.13 -9.93 0 0 -36.84c0,-3.95 -0.34,-6.81 -0.98,-8.56 -0.64,-1.75 -1.81,-3.14 -3.52,-4.21 -1.69,-1.07 -3.68,-1.6 -5.96,-1.6 -4.13,0 -7.56,1.37 -10.28,4.1 -2.72,2.74 -4.08,7.13 -4.08,13.14l0 33.97 -9.93 0 0 -37.99c0,-4.4 -0.81,-7.71 -2.42,-9.91 -1.62,-2.2 -4.27,-3.31 -7.94,-3.31 -2.78,0 -5.36,0.73 -7.73,2.2 -2.37,1.47 -4.08,3.61 -5.15,6.45 -1.05,2.82 -1.58,6.9 -1.58,12.22l0 30.34 -9.92 0zm133.89 -18.95l10.27 1.35c-1.6,5.96 -4.59,10.6 -8.95,13.89 -4.36,3.29 -9.93,4.94 -16.71,4.94 -8.53,0 -15.3,-2.63 -20.3,-7.89 -5,-5.25 -7.5,-12.63 -7.5,-22.13 0,-9.81 2.52,-17.44 7.57,-22.86 5.06,-5.43 11.62,-8.14 19.68,-8.14 7.8,0 14.18,2.65 19.12,7.97 4.94,5.32 7.43,12.8 7.43,22.45 0,0.58 -0.02,1.46 -0.06,2.63l-43.6 0c0.37,6.41 2.18,11.33 5.45,14.74 3.26,3.4 7.33,5.12 12.2,5.12 3.63,0 6.74,-0.96 9.29,-2.88 2.57,-1.92 4.6,-4.98 6.11,-9.19zm-32.49 -15.9l32.6 0c-0.44,-4.93 -1.69,-8.61 -3.74,-11.08 -3.14,-3.81 -7.24,-5.73 -12.26,-5.73 -4.55,0 -8.37,1.52 -11.47,4.56 -3.08,3.05 -4.79,7.13 -5.13,12.24zm55.29 34.85l0 -58.54 8.91 0 0 8.31c4.28,-6.37 10.49,-9.55 18.59,-9.55 3.53,0 6.76,0.64 9.71,1.9 2.95,1.26 5.17,2.93 6.64,4.98 1.47,2.05 2.5,4.5 3.08,7.31 0.36,1.84 0.55,5.06 0.55,9.65l0 35.94 -9.93 0 0 -35.57c0,-4.04 -0.37,-7.07 -1.14,-9.06 -0.78,-1.99 -2.15,-3.59 -4.1,-4.79 -1.96,-1.18 -4.27,-1.79 -6.9,-1.79 -4.21,0 -7.84,1.34 -10.9,4.02 -3.06,2.67 -4.59,7.76 -4.59,15.24l0 31.94 -9.92 0zm84.28 -8.85l1.36 8.76c-2.78,0.58 -5.29,0.88 -7.46,0.88 -3.59,0 -6.37,-0.57 -8.37,-1.71 -1.98,-1.15 -3.36,-2.64 -4.17,-4.5 -0.81,-1.86 -1.21,-5.77 -1.21,-11.73l0 -33.73 -7.33 0 0 -7.67 7.33 0 0 -14.47 9.93 -5.96 0 20.43 9.93 0 0 7.67 -9.93 0 0 34.29c0,2.84 0.17,4.66 0.53,5.47 0.34,0.81 0.9,1.45 1.69,1.93 0.79,0.47 1.92,0.72 3.39,0.72 1.09,0 2.54,-0.13 4.32,-0.4z"/>
  <path class="fil2" d="M1628.02 1230.83l0 -11.28 11.28 0 0 11.28c0,4.16 -0.73,7.52 -2.22,10.08 -1.47,2.56 -3.82,4.55 -7.03,5.94l-2.7 -4.29c2.1,-0.92 3.65,-2.27 4.62,-4.04 1,-1.79 1.56,-4.34 1.67,-7.69l-5.62 0zm98.32 -21.43l9.7 1.36c-1.07,6.68 -3.78,11.88 -8.16,15.66 -4.38,3.78 -9.78,5.66 -16.15,5.66 -7.99,0 -14.42,-2.61 -19.27,-7.84 -4.87,-5.22 -7.29,-12.71 -7.29,-22.45 0,-6.32 1.05,-11.82 3.14,-16.56 2.08,-4.72 5.26,-8.27 9.55,-10.62 4.27,-2.37 8.91,-3.55 13.95,-3.55 6.34,0 11.55,1.6 15.57,4.81 4.04,3.22 6.64,7.79 7.77,13.69l-9.59 1.46c-0.92,-3.93 -2.54,-6.88 -4.89,-8.87 -2.33,-1.98 -5.15,-2.97 -8.46,-2.97 -5,0 -9.06,1.79 -12.2,5.36 -3.12,3.59 -4.68,9.23 -4.68,16.97 0,7.86 1.5,13.56 4.51,17.11 3.03,3.55 6.95,5.34 11.79,5.34 3.91,0 7.16,-1.19 9.76,-3.57 2.61,-2.37 4.27,-6.03 4.96,-10.98zm17.71 -48.62l0 -11.5 10.6 0 0 9.14c0,4.89 -0.57,8.42 -1.71,10.56 -1.6,2.97 -4.07,5.19 -7.43,6.69l-2.37 -3.91c1.99,-0.81 3.46,-2.07 4.44,-3.82 0.98,-1.73 1.52,-4.12 1.63,-7.17l-5.17 0z"/>
  <path class="fil2" d="M1798.28 1211.88l10.27 1.35c-1.6,5.96 -4.59,10.6 -8.95,13.89 -4.36,3.29 -9.93,4.94 -16.71,4.94 -8.53,0 -15.3,-2.63 -20.3,-7.89 -5,-5.25 -7.5,-12.63 -7.5,-22.13 0,-9.81 2.52,-17.44 7.57,-22.86 5.06,-5.43 11.62,-8.14 19.68,-8.14 7.8,0 14.18,2.65 19.12,7.97 4.94,5.32 7.43,12.8 7.43,22.45 0,0.58 -0.02,1.46 -0.06,2.63l-43.6 0c0.37,6.41 2.18,11.33 5.45,14.74 3.26,3.4 7.33,5.12 12.2,5.12 3.63,0 6.74,-0.96 9.29,-2.88 2.57,-1.92 4.6,-4.98 6.11,-9.19zm-32.49 -15.9l32.6 0c-0.44,-4.93 -1.69,-8.61 -3.74,-11.08 -3.14,-3.81 -7.24,-5.73 -12.26,-5.73 -4.55,0 -8.37,1.52 -11.47,4.56 -3.08,3.05 -4.79,7.13 -5.13,12.24zm51.34 17.37l9.81 -1.58c0.55,3.93 2.09,6.94 4.6,9.04 2.52,2.08 6.06,3.14 10.56,3.14 4.57,0 7.95,-0.92 10.17,-2.78 2.2,-1.84 3.31,-4.02 3.31,-6.52 0,-2.24 -1,-4 -2.97,-5.28 -1.4,-0.88 -4.78,-1.99 -10.15,-3.36 -7.26,-1.83 -12.28,-3.4 -15.1,-4.74 -2.8,-1.36 -4.92,-3.2 -6.37,-5.56 -1.45,-2.35 -2.18,-4.97 -2.18,-7.82 0,-2.62 0.6,-5.02 1.79,-7.24 1.2,-2.22 2.82,-4.06 4.87,-5.53 1.54,-1.13 3.65,-2.08 6.3,-2.88 2.67,-0.79 5.51,-1.18 8.55,-1.18 4.59,0 8.61,0.66 12.07,1.99 3.48,1.31 6.03,3.12 7.69,5.38 1.64,2.27 2.78,5.3 3.4,9.09l-9.7 1.36c-0.44,-3.04 -1.71,-5.43 -3.82,-7.14 -2.11,-1.71 -5.08,-2.56 -8.93,-2.56 -4.53,0 -7.79,0.75 -9.72,2.25 -1.93,1.5 -2.92,3.27 -2.92,5.29 0,1.27 0.4,2.44 1.21,3.47 0.81,1.06 2.07,1.93 3.8,2.64 1,0.37 3.89,1.22 8.74,2.54 6.99,1.86 11.88,3.4 14.66,4.59 2.78,1.18 4.96,2.93 6.54,5.18 1.6,2.27 2.39,5.1 2.39,8.48 0,3.29 -0.96,6.39 -2.89,9.31 -1.93,2.91 -4.72,5.17 -8.35,6.76 -3.65,1.6 -7.76,2.39 -12.35,2.39 -7.6,0 -13.41,-1.58 -17.39,-4.72 -3.98,-3.16 -6.52,-7.82 -7.63,-14zm81.89 8.63l1.36 8.76c-2.78,0.58 -5.29,0.88 -7.46,0.88 -3.59,0 -6.37,-0.57 -8.37,-1.71 -1.98,-1.15 -3.36,-2.64 -4.17,-4.5 -0.81,-1.86 -1.21,-5.77 -1.21,-11.73l0 -33.73 -7.33 0 0 -7.67 7.33 0 0 -14.47 9.93 -5.96 0 20.43 9.93 0 0 7.67 -9.93 0 0 34.29c0,2.84 0.17,4.66 0.53,5.47 0.34,0.81 0.9,1.45 1.69,1.93 0.79,0.47 1.92,0.72 3.39,0.72 1.09,0 2.54,-0.13 4.32,-0.4zm79.37 8.85l0 -8.7c-4.55,6.64 -10.71,9.94 -18.52,9.94 -3.44,0 -6.65,-0.66 -9.64,-1.98 -2.99,-1.33 -5.21,-2.99 -6.66,-4.98 -1.45,-2.02 -2.46,-4.46 -3.04,-7.36 -0.4,-1.95 -0.6,-5.04 -0.6,-9.24l0 -36.23 9.93 0 0 32.39c0,5.17 0.21,8.66 0.6,10.45 0.62,2.61 1.93,4.65 3.97,6.13 2.01,1.49 4.49,2.24 7.46,2.24 2.97,0 5.75,-0.75 8.34,-2.27 2.6,-1.52 4.44,-3.61 5.53,-6.22 1.07,-2.61 1.61,-6.43 1.61,-11.41l0 -31.3 9.93 0 0 58.54 -8.91 0zm24.5 0l0 -58.54 8.91 0 0 8.31c4.28,-6.37 10.49,-9.55 18.59,-9.55 3.53,0 6.76,0.64 9.71,1.9 2.95,1.26 5.17,2.93 6.64,4.98 1.47,2.05 2.5,4.5 3.08,7.31 0.36,1.84 0.55,5.06 0.55,9.65l0 35.94 -9.93 0 0 -35.57c0,-4.04 -0.37,-7.07 -1.14,-9.06 -0.78,-1.99 -2.15,-3.59 -4.1,-4.79 -1.96,-1.18 -4.27,-1.79 -6.9,-1.79 -4.21,0 -7.84,1.34 -10.9,4.02 -3.06,2.67 -4.59,7.76 -4.59,15.24l0 31.94 -9.92 0zm102.66 -18.95l10.27 1.35c-1.6,5.96 -4.59,10.6 -8.95,13.89 -4.36,3.29 -9.93,4.94 -16.71,4.94 -8.53,0 -15.3,-2.63 -20.3,-7.89 -5,-5.25 -7.5,-12.63 -7.5,-22.13 0,-9.81 2.52,-17.44 7.57,-22.86 5.06,-5.43 11.62,-8.14 19.68,-8.14 7.8,0 14.18,2.65 19.12,7.97 4.94,5.32 7.43,12.8 7.43,22.45 0,0.58 -0.02,1.46 -0.06,2.63l-43.6 0c0.37,6.41 2.18,11.33 5.45,14.74 3.26,3.4 7.33,5.12 12.2,5.12 3.63,0 6.74,-0.96 9.29,-2.88 2.57,-1.92 4.6,-4.98 6.11,-9.19zm-32.49 -15.9l32.6 0c-0.44,-4.93 -1.69,-8.61 -3.74,-11.08 -3.14,-3.81 -7.24,-5.73 -12.26,-5.73 -4.55,0 -8.37,1.52 -11.47,4.56 -3.08,3.05 -4.79,7.13 -5.13,12.24zm86.52 34.85l0 -58.54 8.91 0 0 8.97c2.27,-4.16 4.38,-6.9 6.32,-8.22 1.93,-1.33 4.06,-1.99 6.37,-1.99 3.35,0 6.75,1.06 10.21,3.14l-3.54 9.15c-2.41,-1.35 -4.81,-2.03 -7.22,-2.03 -2.16,0 -4.1,0.65 -5.81,1.95 -1.71,1.3 -2.93,3.11 -3.66,5.41 -1.11,3.52 -1.65,7.37 -1.65,11.56l0 30.59 -9.93 0zm77.6 -18.95l10.27 1.35c-1.6,5.96 -4.59,10.6 -8.95,13.89 -4.36,3.29 -9.93,4.94 -16.71,4.94 -8.53,0 -15.3,-2.63 -20.3,-7.89 -5,-5.25 -7.5,-12.63 -7.5,-22.13 0,-9.81 2.52,-17.44 7.57,-22.86 5.06,-5.43 11.62,-8.14 19.68,-8.14 7.8,0 14.18,2.65 19.12,7.97 4.94,5.32 7.43,12.8 7.43,22.45 0,0.58 -0.02,1.46 -0.06,2.63l-43.6 0c0.37,6.41 2.18,11.33 5.45,14.74 3.26,3.4 7.33,5.12 12.2,5.12 3.63,0 6.74,-0.96 9.29,-2.88 2.57,-1.92 4.6,-4.98 6.11,-9.19zm-32.49 -15.9l32.6 0c-0.44,-4.93 -1.69,-8.61 -3.74,-11.08 -3.14,-3.81 -7.24,-5.73 -12.26,-5.73 -4.55,0 -8.37,1.52 -11.47,4.56 -3.08,3.05 -4.79,7.13 -5.13,12.24zm55.06 34.85l0 -80.76 9.93 0 0 80.76 -9.93 0zm63.51 -7.33c-3.69,3.14 -7.23,5.34 -10.64,6.64 -3.4,1.3 -7.05,1.93 -10.96,1.93 -6.43,0 -11.37,-1.56 -14.83,-4.7 -3.46,-3.12 -5.18,-7.13 -5.18,-11.99 0,-2.86 0.66,-5.47 1.96,-7.84 1.31,-2.37 3.02,-4.25 5.13,-5.67 2.12,-1.43 4.49,-2.52 7.14,-3.26 1.95,-0.51 4.9,-0.99 8.84,-1.49 8,-0.94 13.93,-2.08 17.71,-3.4 0.03,-1.36 0.06,-2.22 0.06,-2.58 0,-4.02 -0.94,-6.86 -2.82,-8.51 -2.54,-2.24 -6.32,-3.35 -11.32,-3.35 -4.69,0 -8.14,0.83 -10.36,2.46 -2.23,1.64 -3.87,4.53 -4.94,8.7l-9.69 -1.36c0.88,-4.15 2.33,-7.52 4.36,-10.08 2.03,-2.56 4.96,-4.51 8.8,-5.9 3.81,-1.37 8.27,-2.07 13.31,-2.07 5,0 9.08,0.59 12.22,1.77 3.12,1.18 5.43,2.65 6.9,4.44 1.46,1.79 2.5,4.04 3.1,6.76 0.32,1.69 0.49,4.74 0.49,9.12l0 13.16c0,9.19 0.21,15 0.62,17.47 0.4,2.46 1.22,4.81 2.43,7.07l-10.38 0c-0.99,-2.08 -1.64,-4.53 -1.92,-7.33zm-0.79 -22c-3.61,1.47 -9.03,2.71 -16.24,3.73 -4.1,0.58 -6.99,1.24 -8.69,1.97 -1.69,0.73 -2.99,1.81 -3.91,3.2 -0.92,1.41 -1.39,2.97 -1.39,4.7 0,2.61 0.99,4.81 3.01,6.56 2.01,1.75 4.94,2.64 8.8,2.64 3.82,0 7.22,-0.83 10.21,-2.5 2.97,-1.65 5.17,-3.93 6.56,-6.8 1.07,-2.24 1.6,-5.53 1.6,-9.87l0.06 -3.61zm46.83 20.47l1.36 8.76c-2.78,0.58 -5.29,0.88 -7.46,0.88 -3.59,0 -6.37,-0.57 -8.37,-1.71 -1.98,-1.15 -3.36,-2.64 -4.17,-4.5 -0.81,-1.86 -1.21,-5.77 -1.21,-11.73l0 -33.73 -7.33 0 0 -7.67 7.33 0 0 -14.47 9.93 -5.96 0 20.43 9.93 0 0 7.67 -9.93 0 0 34.29c0,2.84 0.17,4.66 0.53,5.47 0.34,0.81 0.9,1.45 1.69,1.93 0.79,0.47 1.92,0.72 3.39,0.72 1.09,0 2.54,-0.13 4.32,-0.4zm9.8 -60.63l0 -11.28 9.92 0 0 11.28 -9.92 0zm0 69.48l0 -58.54 9.92 0 0 58.54 -9.92 0zm21.33 -29.27c0,-10.81 3.01,-18.82 9.04,-24.02 5.02,-4.32 11.17,-6.49 18.41,-6.49 8.03,0 14.61,2.64 19.72,7.89 5.09,5.25 7.65,12.52 7.65,21.79 0,7.52 -1.13,13.42 -3.39,17.73 -2.25,4.3 -5.54,7.65 -9.87,10.04 -4.3,2.39 -9.02,3.57 -14.11,3.57 -8.2,0 -14.81,-2.61 -19.87,-7.86 -5.06,-5.24 -7.58,-12.8 -7.58,-22.65zm10.15 0.02c0,7.49 1.64,13.09 4.91,16.79 3.29,3.73 7.41,5.59 12.39,5.59 4.92,0 9.02,-1.86 12.31,-5.6 3.27,-3.74 4.91,-9.44 4.91,-17.09 0,-7.22 -1.65,-12.69 -4.94,-16.39 -3.29,-3.73 -7.39,-5.59 -12.28,-5.59 -4.98,0 -9.1,1.84 -12.39,5.55 -3.27,3.7 -4.91,9.29 -4.91,16.75zm56.31 29.25l0 -58.54 8.91 0 0 8.31c4.28,-6.37 10.49,-9.55 18.59,-9.55 3.53,0 6.76,0.64 9.71,1.9 2.95,1.26 5.17,2.93 6.64,4.98 1.47,2.05 2.5,4.5 3.08,7.31 0.36,1.84 0.55,5.06 0.55,9.65l0 35.94 -9.93 0 0 -35.57c0,-4.04 -0.37,-7.07 -1.14,-9.06 -0.78,-1.99 -2.15,-3.59 -4.1,-4.79 -1.96,-1.18 -4.27,-1.79 -6.9,-1.79 -4.21,0 -7.84,1.34 -10.9,4.02 -3.06,2.67 -4.59,7.76 -4.59,15.24l0 31.94 -9.92 0zm131.86 0l0 -7.42c-3.7,5.77 -9.16,8.66 -16.36,8.66 -4.66,0 -8.95,-1.28 -12.84,-3.85 -3.91,-2.56 -6.94,-6.15 -9.1,-10.74 -2.14,-4.6 -3.22,-9.89 -3.22,-15.86 0,-5.83 0.98,-11.11 2.92,-15.86 1.95,-4.74 4.87,-8.39 8.76,-10.9 3.87,-2.54 8.23,-3.8 13.03,-3.8 3.53,0 6.67,0.75 9.42,2.24 2.74,1.48 4.98,3.44 6.71,5.83l0 -29.05 9.93 0 0 80.76 -9.25 0zm-31.36 -29.2c0,7.48 1.58,13.07 4.76,16.77 3.16,3.7 6.9,5.55 11.2,5.55 4.34,0 8.03,-1.77 11.08,-5.31 3.03,-3.53 4.55,-8.93 4.55,-16.19 0,-7.97 -1.54,-13.84 -4.65,-17.58 -3.08,-3.74 -6.9,-5.6 -11.43,-5.6 -4.42,0 -8.11,1.79 -11.08,5.38 -2.95,3.59 -4.44,9.25 -4.44,16.97zm96.24 10.25l10.27 1.35c-1.6,5.96 -4.59,10.6 -8.95,13.89 -4.36,3.29 -9.93,4.94 -16.71,4.94 -8.53,0 -15.3,-2.63 -20.3,-7.89 -5,-5.25 -7.5,-12.63 -7.5,-22.13 0,-9.81 2.52,-17.44 7.57,-22.86 5.06,-5.43 11.62,-8.14 19.68,-8.14 7.8,0 14.18,2.65 19.12,7.97 4.94,5.32 7.43,12.8 7.43,22.45 0,0.58 -0.02,1.46 -0.06,2.63l-43.6 0c0.37,6.41 2.18,11.33 5.45,14.74 3.26,3.4 7.33,5.12 12.2,5.12 3.63,0 6.74,-0.96 9.29,-2.88 2.57,-1.92 4.6,-4.98 6.11,-9.19zm-32.49 -15.9l32.6 0c-0.44,-4.93 -1.69,-8.61 -3.74,-11.08 -3.14,-3.81 -7.24,-5.73 -12.26,-5.73 -4.55,0 -8.37,1.52 -11.47,4.56 -3.08,3.05 -4.79,7.13 -5.13,12.24zm124.86 13.42l9.7 1.36c-1.07,6.68 -3.78,11.88 -8.16,15.66 -4.38,3.78 -9.78,5.66 -16.15,5.66 -7.99,0 -14.42,-2.61 -19.27,-7.84 -4.87,-5.22 -7.29,-12.71 -7.29,-22.45 0,-6.32 1.05,-11.82 3.14,-16.56 2.08,-4.72 5.26,-8.27 9.55,-10.62 4.27,-2.37 8.91,-3.55 13.95,-3.55 6.34,0 11.55,1.6 15.57,4.81 4.04,3.22 6.64,7.79 7.77,13.69l-9.59 1.46c-0.92,-3.93 -2.54,-6.88 -4.89,-8.87 -2.33,-1.98 -5.15,-2.97 -8.46,-2.97 -5,0 -9.06,1.79 -12.2,5.36 -3.12,3.59 -4.68,9.23 -4.68,16.97 0,7.86 1.5,13.56 4.51,17.11 3.03,3.55 6.95,5.34 11.79,5.34 3.91,0 7.16,-1.19 9.76,-3.57 2.61,-2.37 4.27,-6.03 4.96,-10.98z"/>
  <path class="fil2" d="M2767.28 1201.56c0,-10.81 3.01,-18.82 9.04,-24.02 5.02,-4.32 11.17,-6.49 18.41,-6.49 8.03,0 14.61,2.64 19.72,7.89 5.09,5.25 7.65,12.52 7.65,21.79 0,7.52 -1.13,13.42 -3.39,17.73 -2.25,4.3 -5.54,7.65 -9.87,10.04 -4.3,2.39 -9.02,3.57 -14.11,3.57 -8.2,0 -14.81,-2.61 -19.87,-7.86 -5.06,-5.24 -7.58,-12.8 -7.58,-22.65zm10.15 0.02c0,7.49 1.64,13.09 4.91,16.79 3.29,3.73 7.41,5.59 12.39,5.59 4.92,0 9.02,-1.86 12.31,-5.6 3.27,-3.74 4.91,-9.44 4.91,-17.09 0,-7.22 -1.65,-12.69 -4.94,-16.39 -3.29,-3.73 -7.39,-5.59 -12.28,-5.59 -4.98,0 -9.1,1.84 -12.39,5.55 -3.27,3.7 -4.91,9.29 -4.91,16.75zm56.31 29.25l0 -58.54 8.91 0 0 8.31c4.28,-6.37 10.49,-9.55 18.59,-9.55 3.53,0 6.76,0.64 9.71,1.9 2.95,1.26 5.17,2.93 6.64,4.98 1.47,2.05 2.5,4.5 3.08,7.31 0.36,1.84 0.55,5.06 0.55,9.65l0 35.94 -9.93 0 0 -35.57c0,-4.04 -0.37,-7.07 -1.14,-9.06 -0.78,-1.99 -2.15,-3.59 -4.1,-4.79 -1.96,-1.18 -4.27,-1.79 -6.9,-1.79 -4.21,0 -7.84,1.34 -10.9,4.02 -3.06,2.67 -4.59,7.76 -4.59,15.24l0 31.94 -9.92 0zm65.32 0l0 -50.87 -8.8 0 0 -7.67 8.8 0 0 -5.66c0,-5.79 1.26,-10.23 3.76,-13.29 2.5,-3.08 6.45,-4.63 11.86,-4.63 3.65,0 7.02,0.41 10.09,1.25l-1.54 8.37c-1.96,-0.32 -3.74,-0.47 -5.36,-0.47 -3.42,0 -5.77,0.68 -7.01,2.03 -1.26,1.36 -1.88,4.23 -1.88,8.63l0 3.78 11.39 0 0 7.67 -11.39 0 0 50.87 -9.93 0zm28.65 -69.48l0 -11.28 9.93 0 0 11.28 -9.93 0zm0 69.48l0 -58.54 9.93 0 0 58.54 -9.93 0zm63.39 -7.33c-3.69,3.14 -7.23,5.34 -10.64,6.64 -3.4,1.3 -7.05,1.93 -10.96,1.93 -6.43,0 -11.37,-1.56 -14.83,-4.7 -3.46,-3.12 -5.19,-7.13 -5.19,-11.99 0,-2.86 0.66,-5.47 1.96,-7.84 1.31,-2.37 3.03,-4.25 5.13,-5.67 2.12,-1.43 4.49,-2.52 7.14,-3.26 1.95,-0.51 4.9,-0.99 8.84,-1.49 8,-0.94 13.93,-2.08 17.71,-3.4 0.03,-1.36 0.06,-2.22 0.06,-2.58 0,-4.02 -0.94,-6.86 -2.82,-8.51 -2.54,-2.24 -6.32,-3.35 -11.32,-3.35 -4.69,0 -8.14,0.83 -10.36,2.46 -2.23,1.64 -3.87,4.53 -4.94,8.7l-9.7 -1.36c0.88,-4.15 2.33,-7.52 4.36,-10.08 2.03,-2.56 4.96,-4.51 8.8,-5.9 3.81,-1.37 8.27,-2.07 13.31,-2.07 5,0 9.08,0.59 12.22,1.77 3.12,1.18 5.43,2.65 6.9,4.44 1.46,1.79 2.5,4.04 3.1,6.76 0.32,1.69 0.49,4.74 0.49,9.12l0 13.16c0,9.19 0.21,15 0.62,17.47 0.4,2.46 1.22,4.81 2.43,7.07l-10.38 0c-0.99,-2.08 -1.64,-4.53 -1.92,-7.33zm-0.79 -22c-3.61,1.47 -9.03,2.71 -16.24,3.73 -4.1,0.58 -6.99,1.24 -8.69,1.97 -1.69,0.73 -2.99,1.81 -3.91,3.2 -0.92,1.41 -1.39,2.97 -1.39,4.7 0,2.61 0.99,4.81 3.01,6.56 2.01,1.75 4.94,2.64 8.8,2.64 3.82,0 7.22,-0.83 10.21,-2.5 2.97,-1.65 5.17,-3.93 6.56,-6.8 1.07,-2.24 1.6,-5.53 1.6,-9.87l0.06 -3.61zm25.29 29.33l0 -58.54 8.91 0 0 8.31c4.28,-6.37 10.49,-9.55 18.59,-9.55 3.53,0 6.76,0.64 9.71,1.9 2.95,1.26 5.17,2.93 6.64,4.98 1.47,2.05 2.5,4.5 3.08,7.31 0.36,1.84 0.55,5.06 0.55,9.65l0 35.94 -9.93 0 0 -35.57c0,-4.04 -0.37,-7.07 -1.14,-9.06 -0.78,-1.99 -2.15,-3.59 -4.1,-4.79 -1.96,-1.18 -4.27,-1.79 -6.9,-1.79 -4.21,0 -7.84,1.34 -10.9,4.02 -3.06,2.67 -4.59,7.76 -4.59,15.24l0 31.94 -9.92 0z"/>
  <path class="fil2" d="M3110.95 1209.4l9.7 1.36c-1.07,6.68 -3.78,11.88 -8.16,15.66 -4.38,3.78 -9.78,5.66 -16.15,5.66 -7.99,0 -14.42,-2.61 -19.27,-7.84 -4.87,-5.22 -7.29,-12.71 -7.29,-22.45 0,-6.32 1.05,-11.82 3.14,-16.56 2.08,-4.72 5.26,-8.27 9.55,-10.62 4.27,-2.37 8.91,-3.55 13.95,-3.55 6.34,0 11.55,1.6 15.57,4.81 4.04,3.22 6.64,7.79 7.77,13.69l-9.59 1.46c-0.92,-3.93 -2.54,-6.88 -4.89,-8.87 -2.33,-1.98 -5.15,-2.97 -8.46,-2.97 -5,0 -9.06,1.79 -12.2,5.36 -3.12,3.59 -4.68,9.23 -4.68,16.97 0,7.86 1.5,13.56 4.51,17.11 3.03,3.55 6.95,5.34 11.79,5.34 3.91,0 7.16,-1.19 9.76,-3.57 2.61,-2.37 4.27,-6.03 4.96,-10.98zm58.09 2.49l10.27 1.35c-1.6,5.96 -4.59,10.6 -8.95,13.89 -4.36,3.29 -9.93,4.94 -16.71,4.94 -8.53,0 -15.3,-2.63 -20.3,-7.89 -5,-5.25 -7.5,-12.63 -7.5,-22.13 0,-9.81 2.52,-17.44 7.57,-22.86 5.06,-5.43 11.62,-8.14 19.68,-8.14 7.8,0 14.18,2.65 19.12,7.97 4.94,5.32 7.43,12.8 7.43,22.45 0,0.58 -0.02,1.46 -0.06,2.63l-43.6 0c0.37,6.41 2.18,11.33 5.45,14.74 3.26,3.4 7.33,5.12 12.2,5.12 3.63,0 6.74,-0.96 9.29,-2.88 2.57,-1.92 4.6,-4.98 6.11,-9.19zm-32.49 -15.9l32.6 0c-0.44,-4.93 -1.69,-8.61 -3.74,-11.08 -3.14,-3.81 -7.24,-5.73 -12.26,-5.73 -4.55,0 -8.37,1.52 -11.47,4.56 -3.08,3.05 -4.79,7.13 -5.13,12.24z"/>
  <path class="fil3" d="M1395.54 600.71c0,48.9 -39.17,88.55 -87.47,88.55 -48.32,0 -87.46,-39.65 -87.46,-88.55 0,-48.9 39.15,-88.49 87.46,-88.49 48.3,0 87.47,39.59 87.47,88.49z"/>
  <path class="fil3" d="M1316.76 474.3c56.97,7.38 85.22,33.09 103.7,72.15 4.34,7.67 6.28,14.31 7.03,19.04 0.49,1.84 1,3.69 1.41,5.55 466.12,-984.67 -731.96,425.6 -731.96,425.6 299.11,-286.72 497.78,-538.15 619.82,-522.34z"/>
  <path class="fil3" d="M1610.17 220.41l29.41 0 0 415.03c0,14.03 6.01,20.73 14.04,20.73 2.66,0 39.97,0 46.65,-1.33l5.35 24.06c-6.02,2.01 -46.67,3.33 -56.03,3.33 -26.04,0 -39.43,-16.05 -39.43,-50.82l0 -411z"/>
  <path class="fil3" d="M1960.29 490.97c1.23,-44.66 -11.59,-92.94 -69.03,-92.94 -39.72,0 -73.93,19.58 -93.49,34.21l-12.22 -20.12c20.76,-14.67 61.09,-37.89 108.75,-37.89 69.64,0 92.86,50.14 92.86,113.03l0 194.67 -22.6 0 -3.05 -44.93 -1.23 0c-29.94,23.85 -65.37,45.22 -103.88,45.22 -46.4,0 -85.51,-25.04 -85.51,-80.65 0,-64.79 59.25,-95.98 189.38,-110.6zm-99.59 168.04c33.61,0 63.55,-16.5 99.59,-47.67l0 -99.6c-120.36,14.03 -161.28,42.15 -161.28,88.59 0,42.18 28.11,58.68 61.69,58.68z"/>
  <path class="fil3" d="M2089.53 381.74l23.78 0 2.5 46.31 1.86 0c30.67,-30.65 61.96,-53.82 103.28,-53.82 61.96,0 90.77,37.56 90.77,115.2l0 192.79 -27.57 0 0 -189.05c0,-63.86 -20.03,-93.89 -68.83,-93.89 -35.69,0 -61.33,18.78 -98.26,56.33l0 226.62 -27.54 0 0 -300.49z"/>
  <path class="fil3" d="M2622.49 490.97c1.22,-44.66 -11.63,-92.94 -69.04,-92.94 -39.7,0 -73.92,19.58 -93.47,34.21l-12.24 -20.12c20.79,-14.67 61.11,-37.89 108.76,-37.89 69.66,0 92.87,50.14 92.87,113.03l0 194.67 -22.59 0 -3.07 -44.93 -1.22 0c-29.95,23.85 -65.38,45.22 -103.87,45.22 -46.44,0 -85.53,-25.04 -85.53,-80.65 0,-64.79 59.27,-95.98 189.4,-110.6zm-99.6 168.04c33.61,0 63.53,-16.5 99.6,-47.67l0 -99.6c-120.35,14.03 -161.3,42.12 -161.3,88.59 0,42.18 28.11,58.68 61.7,58.68z"/>
  <path class="fil3" d="M3137.59 490.97c1.21,-44.66 -11.6,-92.94 -69.07,-92.94 -39.69,0 -73.91,19.58 -93.47,34.21l-12.22 -20.12c20.78,-14.67 61.11,-37.89 108.77,-37.89 69.66,0 92.87,50.14 92.87,113.03l0 194.67 -22.62 0 -3.04 -44.93 -1.21 0c-29.94,23.85 -65.4,45.22 -103.88,45.22 -46.43,0 -85.54,-25.04 -85.54,-80.65 0,-64.79 59.25,-95.98 189.42,-110.6l0 0zm-99.6 168.04c33.61,0 63.55,-16.5 99.6,-47.67l0 -99.6c-120.37,14.03 -161.3,42.12 -161.3,88.59 0,42.18 28.1,58.68 61.7,58.68z"/>
  <path class="fil3" d="M2791.38 220.41l29.41 0 0 415.03c0,14.03 6.02,20.73 14.03,20.73 2.68,0 39.98,0 46.67,-1.33l5.35 24.06c-6.02,2.01 -46.65,3.33 -56.01,3.33 -26.09,0 -39.46,-16.05 -39.46,-50.82l0 -411z"/>
  <path class="fil2" d="M1004.96 1073.52l73.93 0 0 -127.24 113.66 0 0 -62.37 -113.66 0 0 -75.94 132.77 0 0 -62.37 -206.7 0 0 327.91zm263.54 0l73.93 0 0 -327.91 -73.93 0 0 327.91zm151.37 0l70.41 0 0 -116.18c0,-38.73 -6.03,-82.48 -9.05,-118.69l2.01 0 32.19 71.42 85.5 163.45 75.95 0 0 -327.91 -70.41 0 0 115.68c0,38.72 6.03,84.99 9.05,119.7l-2.01 0 -32.19 -72.43 -85.5 -162.95 -75.94 0 0 327.91zm411.39 -165.97c9.05,-32.69 17.6,-70.91 25.65,-105.61l2.01 0c8.55,34.2 17.6,72.93 26.65,105.61l7.54 30.18 -69.91 0 8.04 -30.18zm-118.69 165.97l75.44 0 20.12 -77.96 100.08 0 20.12 77.96 78.45 0 -102.6 -327.91 -89.02 0 -102.6 327.91zm329.93 0l70.41 0 0 -116.18c0,-38.73 -6.03,-82.48 -9.05,-118.69l2.01 0 32.19 71.42 85.5 163.45 75.95 0 0 -327.91 -70.41 0 0 115.68c0,38.72 6.03,84.99 9.05,119.7l-2.01 0 -32.19 -72.43 -85.5 -162.95 -75.94 0 0 327.91zm471.24 6.03c42.75,0 78.96,-16.59 106.12,-48.28l-39.23 -46.27c-16.09,17.1 -37.22,30.68 -63.87,30.68 -48.28,0 -79.47,-39.23 -79.47,-106.62 0,-65.89 35.71,-105.61 80.47,-105.61 23.64,0 41.24,11.06 57.84,26.15l39.23 -47.27c-22.13,-22.63 -56.33,-42.75 -98.57,-42.75 -82.98,0 -154.91,63.37 -154.91,172 0,110.14 69.41,167.98 152.39,167.98zm155.91 -6.03l210.23 0 0 -62.37 -136.3 0 0 -75.43 111.65 0 0 -61.86 -111.65 0 0 -65.89 131.27 0 0 -62.37 -205.2 0 0 327.91zm375.69 6.03c78.45,0 123.72,-47.28 123.72,-101.59 0,-46.27 -25.15,-72.93 -64.88,-89.02l-42.25 -17.1c-28.16,-11.56 -49.79,-18.61 -49.79,-38.72 0,-18.61 16.09,-29.67 41.74,-29.67 26.15,0 46.27,9.55 67.9,26.15l37.72 -46.77c-28.16,-28.16 -67.9,-43.25 -105.61,-43.25 -68.4,0 -116.68,43.25 -116.68,97.57 0,47.78 32.19,75.95 65.89,89.52l42.75 18.1c28.67,12.07 47.28,18.61 47.28,39.23 0,19.62 -15.09,31.69 -45.77,31.69 -27.16,0 -57.34,-14.08 -80.97,-34.2l-42.25 50.8c33.19,31.18 78.45,47.28 121.21,47.28z"/>
  <rect class="fil4" x="1004.74" y="1094.4" width="2160.48" height="19.45"/>
 </g>
</svg>
